<?xml version="1.0" encoding="utf-8"?>
<!-- Generator: Adobe Illustrator 26.0.0, SVG Export Plug-In . SVG Version: 6.00 Build 0)  -->
<svg version="1.1" id="Calque_1" xmlns="http://www.w3.org/2000/svg" xmlns:xlink="http://www.w3.org/1999/xlink" x="0px" y="0px"
	 viewBox="0 0 613.87 764.44" style="enable-background:new 0 0 613.87 764.44;" xml:space="preserve">
<style type="text/css">
	.st0{fill:#A3B7E0;}
	.st1{fill:#D84A15;}
	.st2{fill:#D2C2B9;}
	.st3{fill:none;stroke:#929292;stroke-width:1.2103;stroke-miterlimit:10;}
	.st4{fill:#B13718;}
	.st5{fill:#343834;}
	.st6{fill:#DDDDE6;}
	.st7{fill:#D2BA99;}
	.st8{fill:#A0A2A5;}
	.st9{fill:#D2D1D7;}
	.st10{fill:none;stroke:#343834;stroke-width:0.6995;stroke-miterlimit:10;}
	.st11{fill:none;stroke:#343834;stroke-width:0.6719;stroke-miterlimit:10;}
	.st12{fill:#465A92;}
	.st13{fill:#FFFFFF;}
	.st14{clip-path:url(#SVGID_00000109712538188539907890000000984838106238154154_);}
	.st15{fill:#3F3F3F;}
	.st16{clip-path:url(#SVGID_00000138538584115558243760000004735645955577500308_);}
	.st17{fill:#1C2A3F;}
	.st18{fill:#5F7A99;}
	.st19{fill:url(#SVGID_00000039111159302785876620000013788275965249880764_);}
	.st20{opacity:0.72;}
	.st21{filter:url(#Adobe_OpacityMaskFilter);}
	.st22{filter:url(#Adobe_OpacityMaskFilter_00000111872827255354648970000013473690471444502675_);}
	
		.st23{mask:url(#SVGID_00000005985030471412491470000005006788422288257726_);fill:url(#SVGID_00000116920870281306713940000000181041077013836711_);}
	.st24{fill:url(#SVGID_00000024690228395332349290000017497673622419491255_);}
	.st25{filter:url(#Adobe_OpacityMaskFilter_00000005984150585549045170000016370564361528386212_);}
	.st26{filter:url(#Adobe_OpacityMaskFilter_00000169523475614358360140000012116841030144606398_);}
	
		.st27{mask:url(#SVGID_00000070080195303520195630000004808649993575160465_);fill:url(#SVGID_00000004531133478067610020000013006151609495459246_);}
	.st28{fill:url(#SVGID_00000153665915123841771260000010569210492217791665_);}
	.st29{opacity:0.9;}
	.st30{filter:url(#Adobe_OpacityMaskFilter_00000113340983293790050840000007481991977636312471_);}
	.st31{filter:url(#Adobe_OpacityMaskFilter_00000101794164319936419040000009118509011258671551_);}
	
		.st32{mask:url(#SVGID_00000109742647961007142780000015467505788297350288_);fill:url(#SVGID_00000141415360660464727830000011177509610682205861_);}
	.st33{fill:url(#SVGID_00000103265890654494362250000010320887605431973002_);}
	.st34{fill:url(#SVGID_00000173135489659297448950000004909015433501379476_);}
	.st35{opacity:0.58;}
	.st36{fill:#E5EEF9;}
	.st37{opacity:0.2;fill:#FFFFFF;}
	.st38{filter:url(#Adobe_OpacityMaskFilter_00000139988532500844611320000005456485582842885299_);}
	.st39{filter:url(#Adobe_OpacityMaskFilter_00000039845092039801887460000011851566005888666001_);}
	
		.st40{mask:url(#SVGID_00000177482049835612321420000007907626206462565551_);fill:url(#SVGID_00000058563005158710412670000003259115579858656944_);}
	.st41{fill:url(#SVGID_00000094584860224329362140000001076576247276554919_);}
	.st42{fill:#1A4595;}
	.st43{fill:#E84252;}
	.st44{fill:url(#SVGID_00000044895410573120964410000008316366928156025991_);}
	.st45{filter:url(#Adobe_OpacityMaskFilter_00000065041244011383258490000015698767468072716973_);}
	.st46{filter:url(#Adobe_OpacityMaskFilter_00000030485387953053509650000018396186568234697396_);}
	
		.st47{mask:url(#SVGID_00000132060283712761890280000015681223296218310072_);fill:url(#SVGID_00000144308349667824791730000004750485310672349115_);}
	.st48{fill:url(#SVGID_00000060713843387813164840000013871643151618335360_);}
	.st49{filter:url(#Adobe_OpacityMaskFilter_00000000207458589402612210000013409937123515364520_);}
	.st50{filter:url(#Adobe_OpacityMaskFilter_00000033353546044202689410000002670896384413960861_);}
	
		.st51{mask:url(#SVGID_00000087400166457509604910000009632705169268687026_);fill:url(#SVGID_00000119820380419357571110000010733777668742612367_);}
	.st52{fill:url(#SVGID_00000052075533414592587980000015481876286143242917_);}
	.st53{filter:url(#Adobe_OpacityMaskFilter_00000173878242465615515990000001356207587560312201_);}
	.st54{filter:url(#Adobe_OpacityMaskFilter_00000145752460398329019470000015637548062422108292_);}
	
		.st55{mask:url(#SVGID_00000114049984549749158400000008815330015751342766_);fill:url(#SVGID_00000180362643765639914720000009711129848032295059_);}
	.st56{fill:url(#SVGID_00000154418456323600804550000014536916053600801429_);}
	.st57{fill:url(#SVGID_00000085224531636038934210000009668310615091527853_);}
	.st58{filter:url(#Adobe_OpacityMaskFilter_00000034806514285285270840000004027376020834876043_);}
	.st59{filter:url(#Adobe_OpacityMaskFilter_00000036215336689897701490000015751566727958654373_);}
	
		.st60{mask:url(#SVGID_00000147904514066743434010000004541017440775573151_);fill:url(#SVGID_00000106131163107190559040000017393898713563173301_);}
	.st61{fill:url(#SVGID_00000065061833244137302690000009686638684825582726_);}
	.st62{fill:#2253A1;}
	.st63{fill:#FEF6FA;}
	.st64{fill:#E73638;}
	.st65{fill:#E5192D;}
	.st66{fill:url(#SVGID_00000016067876069122874840000007464318795536563885_);}
	.st67{filter:url(#Adobe_OpacityMaskFilter_00000062168662674004528840000017911997244867676075_);}
	.st68{filter:url(#Adobe_OpacityMaskFilter_00000111168008709761886810000015506461008928685998_);}
	
		.st69{mask:url(#SVGID_00000142881525658511346090000006534919338109620399_);fill:url(#SVGID_00000155832492529180148550000005947213594560260540_);}
	.st70{fill:url(#SVGID_00000129184831000304860700000013316450391942430385_);}
	.st71{filter:url(#Adobe_OpacityMaskFilter_00000004514924269662557220000013232288647489727151_);}
	.st72{filter:url(#Adobe_OpacityMaskFilter_00000111886745895088484910000001005325831541434557_);}
	
		.st73{mask:url(#SVGID_00000145763837366187099540000007450529258784052864_);fill:url(#SVGID_00000121264334111408220830000016318188062970535575_);}
	.st74{fill:url(#SVGID_00000107576616982164420610000010681613212310039210_);}
	.st75{filter:url(#Adobe_OpacityMaskFilter_00000071525973849482850310000008566468908585597087_);}
	.st76{filter:url(#Adobe_OpacityMaskFilter_00000089545064152217339870000011244665995590274450_);}
	
		.st77{mask:url(#SVGID_00000174593862674233405640000009271434668942343048_);fill:url(#SVGID_00000036953829736177581740000003472627216090776216_);}
	.st78{fill:url(#SVGID_00000104705059857139223120000016408011126238434707_);}
	.st79{fill:url(#SVGID_00000159442003430230365680000011056226498209695416_);}
	.st80{filter:url(#Adobe_OpacityMaskFilter_00000060722101363000626460000012590585289548103317_);}
	.st81{filter:url(#Adobe_OpacityMaskFilter_00000065787386994922262840000015081050194328261546_);}
	
		.st82{mask:url(#SVGID_00000142155831008029846100000015063554064415519655_);fill:url(#SVGID_00000011021688518817137150000013650150979621299124_);}
	.st83{fill:url(#SVGID_00000003106935102586211520000007137823052766425472_);}
	.st84{fill:url(#SVGID_00000025422668909556152040000015480906423559219118_);}
	.st85{filter:url(#Adobe_OpacityMaskFilter_00000160878989461846138380000016224966757701838722_);}
	.st86{filter:url(#Adobe_OpacityMaskFilter_00000156545325822661118020000015800213612930670503_);}
	
		.st87{mask:url(#SVGID_00000057143543983296805000000007428082104066103437_);fill:url(#SVGID_00000166669674793584674880000000679132069024496042_);}
	.st88{fill:url(#SVGID_00000155126107940039666760000013908059228656618136_);}
	.st89{filter:url(#Adobe_OpacityMaskFilter_00000156570936171811952270000009540854789123130243_);}
	.st90{filter:url(#Adobe_OpacityMaskFilter_00000166642179720147501290000006064328213059118209_);}
	
		.st91{mask:url(#SVGID_00000145035656596512791270000007394634163367616160_);fill:url(#SVGID_00000174589540015692303590000016771172026918442627_);}
	.st92{fill:url(#SVGID_00000119083598240605437230000005568987043054011050_);}
	.st93{filter:url(#Adobe_OpacityMaskFilter_00000152960906615854210340000016330084849708654211_);}
	.st94{filter:url(#Adobe_OpacityMaskFilter_00000031895111395768769760000010469332163073162625_);}
	
		.st95{mask:url(#SVGID_00000108276986273411556150000008261029893451586460_);fill:url(#SVGID_00000133500775274521295160000000591970233113262011_);}
	.st96{fill:url(#SVGID_00000108286526202556971740000001176341367885020570_);}
	.st97{fill:url(#SVGID_00000144316740866983440310000003804708011214035618_);}
	.st98{filter:url(#Adobe_OpacityMaskFilter_00000121992521172851624880000012719811094883102612_);}
	.st99{filter:url(#Adobe_OpacityMaskFilter_00000003094700539463845020000005352606504717888167_);}
	
		.st100{mask:url(#SVGID_00000111870777312930033670000008434102609435156159_);fill:url(#SVGID_00000125572989719105462730000002654231485272089258_);}
	.st101{fill:url(#SVGID_00000113333929821396409190000001255498989627206285_);}
	.st102{clip-path:url(#SVGID_00000112627249357351179710000012731254019617937051_);}
	.st103{fill:url(#SVGID_00000073712571103596959730000012784862157087157677_);}
	.st104{filter:url(#Adobe_OpacityMaskFilter_00000074429203103247298980000015019982957914191000_);}
	.st105{filter:url(#Adobe_OpacityMaskFilter_00000124123231286593385830000001299440202135759551_);}
	
		.st106{mask:url(#SVGID_00000178180015909670244110000017656556894940625842_);fill:url(#SVGID_00000007390212490810328030000002958743833832466097_);}
	.st107{fill:url(#SVGID_00000096035169850759025080000008645855415904631443_);}
	.st108{filter:url(#Adobe_OpacityMaskFilter_00000052073552137109838900000004831953026463472518_);}
	.st109{filter:url(#Adobe_OpacityMaskFilter_00000016790897349575637480000012468495338492275853_);}
	
		.st110{mask:url(#SVGID_00000090277999683267779810000000454674710023355576_);fill:url(#SVGID_00000065769593965224886530000009907562335375619718_);}
	.st111{fill:url(#SVGID_00000064313022647511479500000012222132025091077762_);}
	.st112{filter:url(#Adobe_OpacityMaskFilter_00000173156144810221595830000010521388255032730014_);}
	.st113{filter:url(#Adobe_OpacityMaskFilter_00000156554679953405973650000017213475524764373159_);}
	
		.st114{mask:url(#SVGID_00000071520663807025883660000005546480595930320519_);fill:url(#SVGID_00000146488959773595418830000014055446137000326803_);}
	.st115{fill:url(#SVGID_00000173159293084063089350000003261041184729565869_);}
	.st116{fill:url(#SVGID_00000072999651120545083940000017544073315484546467_);}
	.st117{filter:url(#Adobe_OpacityMaskFilter_00000008830765146772107100000013526375711586567562_);}
	.st118{filter:url(#Adobe_OpacityMaskFilter_00000107590372080770475360000003489862558383613871_);}
	
		.st119{mask:url(#SVGID_00000094609172885431424030000014567613687260104375_);fill:url(#SVGID_00000150063149311580028120000001580837730895092360_);}
	.st120{fill:url(#SVGID_00000132810057637647634710000004304250707747198376_);}
	.st121{clip-path:url(#SVGID_00000004510036874913866750000008691142037937649851_);}
	.st122{fill:url(#SVGID_00000098180484929691994570000011668547445052992683_);}
	.st123{filter:url(#Adobe_OpacityMaskFilter_00000139286240129253324360000010889014573152426939_);}
	.st124{filter:url(#Adobe_OpacityMaskFilter_00000036938018410850224420000001536765143809107843_);}
	
		.st125{mask:url(#SVGID_00000092444695051271108790000011970488202761000609_);fill:url(#SVGID_00000026140455646220402200000014334626915879272619_);}
	.st126{fill:url(#SVGID_00000134951739956572989450000013744406306616927679_);}
	.st127{filter:url(#Adobe_OpacityMaskFilter_00000021109567961285712130000002835526527610758290_);}
	.st128{filter:url(#Adobe_OpacityMaskFilter_00000057140964783025279720000001879388179753799560_);}
	
		.st129{mask:url(#SVGID_00000111885430708233425350000002312352839859718291_);fill:url(#SVGID_00000004523260562563011410000011917742290756235953_);}
	.st130{fill:url(#SVGID_00000009550477147379716060000007674622452092048280_);}
	.st131{filter:url(#Adobe_OpacityMaskFilter_00000011720826140563009040000010910321431924527275_);}
	.st132{filter:url(#Adobe_OpacityMaskFilter_00000107555730481790728180000009500866007179753862_);}
	
		.st133{mask:url(#SVGID_00000014599638502624161870000013003660157092672139_);fill:url(#SVGID_00000055701524562364456410000015747649057942146235_);}
	.st134{fill:url(#SVGID_00000155863841991100995740000005427099043142234799_);}
	.st135{fill:url(#SVGID_00000142881792911734796800000010659913272240043155_);}
	.st136{filter:url(#Adobe_OpacityMaskFilter_00000158009323594921264780000000318890474082213017_);}
	.st137{filter:url(#Adobe_OpacityMaskFilter_00000137104423001796764880000000429589369121893308_);}
	
		.st138{mask:url(#SVGID_00000030446204097793610860000012719569069133600930_);fill:url(#SVGID_00000132799352598518409690000010467422356883873667_);}
	.st139{fill:url(#SVGID_00000046307806646119216050000001371237124515019173_);}
	.st140{fill:#E2AF55;}
	.st141{fill:#C4C4C4;}
	.st142{fill:#EAEAEA;}
	.st143{fill:#D8D8D8;}
	.st144{fill:#C17D11;}
	.st145{fill:#BABABA;}
	.st146{fill:none;stroke:#FCD499;stroke-width:2.4457;stroke-linecap:round;stroke-linejoin:round;stroke-miterlimit:10;}
	.st147{fill:#D8B293;}
	.st148{fill:#CE9108;}
	.st149{fill:#F9B206;}
	.st150{fill:#412913;}
	.st151{fill:#AA601B;}
	.st152{fill:#C1772D;}
	.st153{fill:#804E12;}
	.st154{fill:#E52234;}
	.st155{clip-path:url(#SVGID_00000085970694608388278080000012189944374270444183_);}
	.st156{clip-path:url(#SVGID_00000177455646899972188020000011600821988815438237_);}
	.st157{fill:none;stroke:#FFFFFF;stroke-width:2.1244;stroke-linecap:round;stroke-miterlimit:10;}
	.st158{fill:#233265;}
	.st159{fill:#63C6F2;}
	.st160{fill:#EFEBE2;}
	.st161{fill:#616264;}
	.st162{fill:#171F37;}
	.st163{fill:url(#SVGID_00000080917194145357781940000010817205471482762174_);}
	.st164{filter:url(#Adobe_OpacityMaskFilter_00000150104887747691759370000003174691897212135855_);}
	.st165{filter:url(#Adobe_OpacityMaskFilter_00000040535440747767494880000017939870771483727259_);}
	
		.st166{mask:url(#SVGID_00000092446448640040474910000000299229895045644205_);fill:url(#SVGID_00000021089147759570088210000001686836549170407839_);}
	.st167{fill:url(#SVGID_00000125593367420982743330000001325041118299607190_);}
	.st168{filter:url(#Adobe_OpacityMaskFilter_00000176013225536600395000000010558432109385125822_);}
	.st169{filter:url(#Adobe_OpacityMaskFilter_00000117675633149956103560000009574663170203509681_);}
	
		.st170{mask:url(#SVGID_00000047019026276770913160000001202947594152966331_);fill:url(#SVGID_00000072242598294538012170000007155321049295530637_);}
	.st171{fill:url(#SVGID_00000146458296505634780220000000319437928127951778_);}
	.st172{filter:url(#Adobe_OpacityMaskFilter_00000164494327775286160770000016877223823900809607_);}
	.st173{filter:url(#Adobe_OpacityMaskFilter_00000070099627290167431000000014687503189947001506_);}
	
		.st174{mask:url(#SVGID_00000160885941517299688090000007051010845119046830_);fill:url(#SVGID_00000037654382049990098980000006844989760889049518_);}
	.st175{fill:url(#SVGID_00000168102677955226921170000006827961011597838516_);}
	.st176{fill:url(#SVGID_00000143619027694437936880000018075131804813395639_);}
	.st177{filter:url(#Adobe_OpacityMaskFilter_00000108295646326870693730000017586257834554692526_);}
	.st178{filter:url(#Adobe_OpacityMaskFilter_00000106115014563636172510000005515199509757797797_);}
	
		.st179{mask:url(#SVGID_00000061436194748600283910000009944215258878601901_);fill:url(#SVGID_00000146460478147053464020000006615198159447949700_);}
	.st180{fill:url(#SVGID_00000014633302370949523170000017207203346707209092_);}
	.st181{fill:url(#SVGID_00000004531870291392223500000005725260552815899021_);}
	.st182{filter:url(#Adobe_OpacityMaskFilter_00000015352710316166058780000000484776338308707724_);}
	.st183{filter:url(#Adobe_OpacityMaskFilter_00000048482892332769587640000016658490952548336285_);}
	
		.st184{mask:url(#SVGID_00000161596833631587788050000012848063893243189425_);fill:url(#SVGID_00000080902728012764527120000007317764441471131028_);}
	.st185{fill:url(#SVGID_00000134946299978971909720000011187962250517712316_);}
	.st186{filter:url(#Adobe_OpacityMaskFilter_00000070801531127015072510000002268763008727248791_);}
	.st187{filter:url(#Adobe_OpacityMaskFilter_00000117664255726583059840000018387641827409595056_);}
	
		.st188{mask:url(#SVGID_00000007429749521465071790000016222713540710343302_);fill:url(#SVGID_00000031920665978461293340000016147956121001366701_);}
	.st189{fill:url(#SVGID_00000023256271814389614860000018239747622279722163_);}
	.st190{filter:url(#Adobe_OpacityMaskFilter_00000111163594397836306540000006326534431315173004_);}
	.st191{filter:url(#Adobe_OpacityMaskFilter_00000075152773676010694370000009070663588343628182_);}
	
		.st192{mask:url(#SVGID_00000150076629796902288900000013489113079163832723_);fill:url(#SVGID_00000152967478188780398490000013645392817731444415_);}
	.st193{fill:url(#SVGID_00000069392148643776068330000010581185449481159096_);}
	.st194{fill:url(#SVGID_00000065795291830695926090000010130849522733831357_);}
	.st195{filter:url(#Adobe_OpacityMaskFilter_00000168820931932147255040000006612007638214611359_);}
	.st196{filter:url(#Adobe_OpacityMaskFilter_00000160869728761726778010000016420563307578047398_);}
	
		.st197{mask:url(#SVGID_00000044140958991492218520000013137135842709770884_);fill:url(#SVGID_00000086683936617612951060000001291459318581802894_);}
	.st198{fill:url(#SVGID_00000069373474060411730700000016721984049219255178_);}
	.st199{fill:none;stroke:#223263;stroke-width:7;stroke-linecap:round;stroke-miterlimit:10;}
</style>
<g>
	<path class="st5" d="M100.95,393.26c0,0,8.86,17.25,30.78,4.43c9.33-1.17,14.46-28.44,14.46-28.44s0.7-7.46,7.23,0
		c6.53,7.46,13.99,16.32-1.87,52.46c-13.52,30.78,5.61,46.16,9.45,55.02c3.84,8.86,28.32,49.43,5.24,74.84
		c-23.08,25.41-70.65,25.88-80.44,24.71s-44.77-2.33-64.35-18.65c-35.37-23.29-16.32-80.9-16.32-80.9s20.75-34.97,21.92-43.13
		c1.17-8.16,1.87-22.62-8.16-43.13s-10.96-30.31-10.26-38.7s3.96-23.32,9.56-27.05c5.6-3.73,8.39-4.43,9.09,1.87
		c0.7,6.3,3.5,37.3,17.02,43.37s23.78-0.93,23.78-1.87S100.95,393.26,100.95,393.26z"/>
	<path class="st6" d="M68.54,385.57l-7.23-4.43c0,0-6.3-3.5-5.13,3.5c1.17,6.99,3.96,20.75,2.33,30.54
		c-1.63,9.79-1.4,13.29-5.83,27.51s-1.17,23.55,4.43,25.65s51.29,7.93,51.29,7.93s18.19,3.26,21.45,5.6s11.89,9.56,15.39,13.76
		s16.79,6.3,14.92-4.43c-2.59-15.73-11.42-18.19-16.55-38c0,0-3.73-10.96,1.4-27.28c7.93-15.16,10.73-21.22,12.12-30.78
		c1.4-9.56-2.1-19.35-3.73-20.98c-1.63-1.63-3.03-3.73-3.5,0c-0.47,3.73-4.43,20.98-11.66,26.11c-7.23,5.13-15.94,8.61-24.71,7.23
		c-9.63-1.52-11.93-3.05-12.59-4.2C100.32,402.2,68.54,385.57,68.54,385.57z"/>
	<path class="st7" d="M69.3,404.37l3.99-260.82l0.11-7.2c0.02-1.05,0.87-1.89,1.92-1.89h18.6c1.05,0,1.9,0.84,1.92,1.89l4.1,268.02
		c0.02,1.07-0.85,1.95-1.92,1.95H71.22C70.15,406.32,69.29,405.44,69.3,404.37z"/>
	<g>
		
			<rect x="62.91" y="102.02" transform="matrix(-0.2828 0.9592 -0.9592 -0.2828 183.49 72.7924)" class="st8" width="3.24" height="5.95"/>
		
			<ellipse transform="matrix(0.1746 -0.9846 0.9846 0.1746 -52.9806 143.6274)" class="st8" cx="59.18" cy="103.41" rx="5.65" ry="4.22"/>
		
			<rect x="66.99" y="89.04" transform="matrix(-0.2828 0.9592 -0.9592 -0.2828 176.2708 52.2306)" class="st8" width="3.24" height="5.95"/>
		
			<ellipse transform="matrix(0.1746 -0.9846 0.9846 0.1746 -36.8347 136.9284)" class="st8" cx="63.25" cy="90.43" rx="5.65" ry="4.22"/>
		
			<rect x="71.45" y="75.87" transform="matrix(-0.2828 0.9592 -0.9592 -0.2828 169.3585 31.0654)" class="st8" width="3.24" height="5.95"/>
		
			<ellipse transform="matrix(0.1746 -0.9846 0.9846 0.1746 -20.1918 130.4483)" class="st8" cx="67.71" cy="77.27" rx="5.65" ry="4.22"/>
		
			<rect x="75.91" y="62.85" transform="matrix(-0.2828 0.9592 -0.9592 -0.2828 162.5832 10.0761)" class="st8" width="3.24" height="5.95"/>
		
			<ellipse transform="matrix(0.1746 -0.9846 0.9846 0.1746 -3.6837 124.0857)" class="st8" cx="72.17" cy="64.24" rx="5.65" ry="4.22"/>
		
			<rect x="79.85" y="50.32" transform="matrix(-0.2828 0.9592 -0.9592 -0.2828 155.634 -9.7728)" class="st8" width="3.24" height="5.95"/>
		
			<ellipse transform="matrix(0.1746 -0.9846 0.9846 0.1746 11.9033 117.6348)" class="st8" cx="76.12" cy="51.72" rx="5.65" ry="4.22"/>
		
			<rect x="84.12" y="36.94" transform="matrix(-0.2828 0.9592 -0.9592 -0.2828 148.2712 -31.0429)" class="st8" width="3.24" height="5.95"/>
		
			<ellipse transform="matrix(0.1746 -0.9846 0.9846 0.1746 28.6102 110.7892)" class="st8" cx="80.39" cy="38.33" rx="5.65" ry="4.22"/>
	</g>
	<path class="st7" d="M106.08,84.33l2.8,27.05c0,0,3.26,5.13-1.4,7.46c-4.66,2.33-10.03,4.9-10.73,8.63
		c-0.7,3.73-0.84,13.04-0.84,13.04l-22.61,3.04c0,0,0.61-14.92-1.73-18.19c-2.33-3.26-6.3-6.06-6.3-6.06s-3.73,0.23-1.4-6.76
		c2.33-6.99,21.56-60.15,22.67-66.92s7.51-21.22,13.4-20.28s11.71,4.85,13.12,8.86c1.08,3.82,0.86,10.38-2.33,12.82
		c-4.2,2.33-7.23,11.42-6.76,16.32S106.08,84.33,106.08,84.33z"/>
	<circle class="st5" cx="124.15" cy="491.72" r="4.31"/>
	<circle class="st5" cx="142.34" cy="521.68" r="4.2"/>
	<path class="st9" d="M65.51,417.18v-1.44c0-2.37,1.92-4.29,4.29-4.29h29.88c2.37,0,4.29,1.92,4.29,4.29v1.44
		c0,2.37-1.92,4.29-4.29,4.29H69.8C67.43,421.47,65.51,419.55,65.51,417.18z"/>
	<path class="st9" d="M65.51,443.76v-1.44c0-2.37,1.92-4.29,4.29-4.29h29.88c2.37,0,4.29,1.92,4.29,4.29v1.44
		c0,2.37-1.92,4.29-4.29,4.29H69.8C67.43,448.05,65.51,446.13,65.51,443.76z"/>
	
		<rect x="82.89" y="123.14" transform="matrix(-1.836970e-16 1 -1 -1.836970e-16 219.0123 50.4288)" class="st5" width="2.8" height="23.17"/>
	<polyline class="st10" points="72.02,111.16 75.07,134.72 69.94,512.87 	"/>
	<polyline class="st10" points="76.35,98.19 78.8,134.72 76.35,507.97 	"/>
	<polyline class="st10" points="80.68,85.1 82.53,133.32 81.6,507.97 	"/>
	<polyline class="st10" points="84.61,72.25 86.26,134.72 88.46,512.87 	"/>
	<polyline class="st10" points="88.94,59.48 89.99,134.72 93.27,507.97 	"/>
	<polyline class="st10" points="93.88,44.24 92.79,134.72 99.55,507.97 	"/>
	<circle class="st5" cx="72.02" cy="111.16" r="4.33"/>
	<circle class="st5" cx="76.35" cy="98.19" r="4.33"/>
	<circle class="st5" cx="80.68" cy="85.1" r="4.33"/>
	<circle class="st5" cx="84.61" cy="72.25" r="4.33"/>
	<circle class="st5" cx="88.94" cy="59.48" r="4.33"/>
	<circle class="st5" cx="93.88" cy="44.24" r="4.33"/>
	<path class="st6" d="M64.34,517.56v-17.54c0-1.53,1.24-2.77,2.77-2.77h35.26c1.53,0,2.77,1.24,2.77,2.77v17.54
		c0,1.53-1.24,2.77-2.77,2.77H67.12C65.58,520.33,64.34,519.09,64.34,517.56z"/>
	<g>
		<path class="st5" d="M98.38,518.15v3.42c0,0.21,0.17,0.39,0.39,0.39h0.8c0.21,0,0.39-0.17,0.39-0.39v-3.42
			c0-0.21-0.17-0.39-0.39-0.39h-0.8C98.56,517.77,98.38,517.94,98.38,518.15z"/>
		<path class="st5" d="M92.31,518.15v3.42c0,0.21,0.17,0.39,0.39,0.39h0.8c0.21,0,0.39-0.17,0.39-0.39v-3.42
			c0-0.21-0.17-0.39-0.39-0.39h-0.8C92.48,517.77,92.31,517.94,92.31,518.15z"/>
		<path class="st5" d="M86.54,518.15v3.42c0,0.21,0.17,0.39,0.39,0.39h0.8c0.21,0,0.39-0.17,0.39-0.39v-3.42
			c0-0.21-0.17-0.39-0.39-0.39h-0.8C86.71,517.77,86.54,517.94,86.54,518.15z"/>
		<path class="st5" d="M80.77,518.15v3.42c0,0.21,0.17,0.39,0.39,0.39h0.8c0.21,0,0.39-0.17,0.39-0.39v-3.42
			c0-0.21-0.17-0.39-0.39-0.39h-0.8C80.94,517.77,80.77,517.94,80.77,518.15z"/>
		<path class="st5" d="M74.3,518.15v3.42c0,0.21,0.17,0.39,0.39,0.39h0.8c0.21,0,0.39-0.17,0.39-0.39v-3.42
			c0-0.21-0.17-0.39-0.39-0.39h-0.8C74.47,517.77,74.3,517.94,74.3,518.15z"/>
		<path class="st5" d="M68.66,518.15v3.42c0,0.21,0.17,0.39,0.39,0.39h0.8c0.21,0,0.39-0.17,0.39-0.39v-3.42
			c0-0.21-0.17-0.39-0.39-0.39h-0.8C68.83,517.77,68.66,517.94,68.66,518.15z"/>
	</g>
</g>
<g>
	<path class="st5" d="M531.6,389.67c0,0,8.51-16.57,29.56-4.26c8.96,1.12,13.89,27.32,13.89,27.32s0.67,7.17,6.94,0
		c6.27-7.17,13.44-15.68-1.79-50.39c-12.99-29.56,5.39-44.34,9.08-52.86c3.69-8.51,27.2-47.48,5.03-71.89
		c-22.17-24.41-67.86-24.86-77.27-23.74c-9.41,1.12-43,2.24-61.81,17.92s-22.17,18.37-26.2,33.37
		c-4.03,15.01,10.53,44.34,10.53,44.34s19.93,33.59,21.05,41.43c1.12,7.84,1.79,21.72-7.84,41.43
		c-9.63,19.71-10.53,29.12-9.85,37.18c0.67,8.06,3.81,22.4,9.18,25.98c5.38,3.58,8.06,4.26,8.73-1.79
		c0.67-6.05,3.36-35.83,16.35-41.66c12.99-5.82,22.84,0.9,22.84,1.79C500.02,414.75,531.6,389.67,531.6,389.67z"/>
	<path class="st6" d="M500.47,397.06l-6.94,4.26c0,0-6.05,3.36-4.93-3.36c1.12-6.72,3.81-19.93,2.24-29.34
		c-1.57-9.41-1.34-12.77-5.6-26.43c-4.26-13.66-1.12-22.62,4.26-24.64c5.38-2.02,49.27-7.61,49.27-7.61s17.47-3.14,20.6-5.38
		s11.42-9.18,14.78-13.21c3.36-4.03,16.13-6.05,14.33,4.26c-2.49,15.11-10.97,17.47-15.9,36.51c0,0-3.58,10.53,1.34,26.2
		c7.61,14.56,10.3,20.38,11.65,29.56c1.34,9.18-2.02,18.59-3.58,20.16s-2.91,3.58-3.36,0c-0.45-3.58-4.26-20.16-11.2-25.08
		s-15.32-8.27-23.74-6.94c-9.25,1.46-11.46,2.93-12.09,4.03C531,381.09,500.47,397.06,500.47,397.06z"/>
	<path class="st7" d="M501.2,379l3.84,250.53l0.11,6.92c0.02,1.01,0.84,1.82,1.84,1.82h17.87c1.01,0,1.83-0.81,1.84-1.82L530.64,379
		c0.02-1.03-0.81-1.87-1.84-1.87h-25.76C502.01,377.13,501.19,377.97,501.2,379z"/>
	<g>
		
			<rect x="495.07" y="663.72" transform="matrix(-0.2828 -0.9592 0.9592 -0.2828 -2.2752 1331.4476)" class="st8" width="3.11" height="5.71"/>
		
			<ellipse transform="matrix(0.9846 -0.1746 0.1746 0.9846 -109.0894 96.0632)" class="st8" cx="491.47" cy="668.09" rx="4.05" ry="5.43"/>
		
			<rect x="498.98" y="676.19" transform="matrix(-0.2828 -0.9592 0.9592 -0.2828 -9.2099 1351.1989)" class="st8" width="3.11" height="5.71"/>
		
			<ellipse transform="matrix(0.9846 -0.1746 0.1746 0.9846 -111.2059 96.9385)" class="st8" cx="495.39" cy="680.56" rx="4.05" ry="5.43"/>
		
			<rect x="503.26" y="688.83" transform="matrix(-0.2828 -0.9592 0.9592 -0.2828 -15.8496 1371.5298)" class="st8" width="3.11" height="5.71"/>
		
			<ellipse transform="matrix(0.9846 -0.1746 0.1746 0.9846 -113.3483 97.8801)" class="st8" cx="499.67" cy="693.21" rx="4.05" ry="5.43"/>
		
			<rect x="507.55" y="701.35" transform="matrix(-0.2828 -0.9592 0.9592 -0.2828 -22.3579 1391.6915)" class="st8" width="3.11" height="5.71"/>
		
			<ellipse transform="matrix(0.9846 -0.1746 0.1746 0.9846 -115.4672 98.82)" class="st8" cx="503.96" cy="705.72" rx="4.05" ry="5.43"/>
		
			<rect x="511.34" y="713.38" transform="matrix(-0.2828 -0.9592 0.9592 -0.2828 -29.0331 1410.7579)" class="st8" width="3.11" height="5.71"/>
		
			<ellipse transform="matrix(0.9846 -0.1746 0.1746 0.9846 -117.509 99.6665)" class="st8" cx="507.75" cy="717.75" rx="4.05" ry="5.43"/>
		
			<rect x="515.44" y="726.24" transform="matrix(-0.2828 -0.9592 0.9592 -0.2828 -36.1057 1431.1896)" class="st8" width="3.11" height="5.71"/>
		
			<ellipse transform="matrix(0.9846 -0.1746 0.1746 0.9846 -119.6911 100.5801)" class="st8" cx="511.85" cy="730.61" rx="4.05" ry="5.43"/>
	</g>
	<path class="st7" d="M536.53,686.42l2.69-25.98c0,0,3.14-4.93-1.34-7.17c-4.48-2.24-9.63-4.7-10.3-8.29s-0.81-12.53-0.81-12.53
		l-21.72-2.92c0,0,0.58,14.34-1.66,17.47c-2.24,3.14-6.05,5.82-6.05,5.82s-3.58-0.22-1.34,6.49c2.24,6.72,20.71,57.78,21.78,64.28
		s7.22,20.38,12.88,19.48c5.66-0.9,11.24-4.66,12.6-8.51c1.04-3.67,0.82-9.97-2.24-12.32c-4.03-2.24-6.94-10.97-6.49-15.68
		S536.53,686.42,536.53,686.42z"/>
	<circle class="st6" cx="553.88" cy="294.82" r="4.14"/>
	<circle class="st6" cx="571.36" cy="266.04" r="4.03"/>
	<path class="st9" d="M497.56,366.7v1.38c0,2.28,1.85,4.12,4.12,4.12h28.71c2.28,0,4.12-1.85,4.12-4.12v-1.38
		c0-2.28-1.85-4.12-4.12-4.12h-28.71C499.4,362.57,497.56,364.42,497.56,366.7z"/>
	<path class="st9" d="M497.56,341.16v1.38c0,2.28,1.85,4.12,4.12,4.12h28.71c2.28,0,4.12-1.85,4.12-4.12v-1.38
		c0-2.28-1.85-4.12-4.12-4.12h-28.71C499.4,337.04,497.56,338.89,497.56,341.16z"/>
	
		<rect x="514.26" y="626.89" transform="matrix(4.534690e-11 -1 1 4.534690e-11 -122.4188 1153.6191)" class="st5" width="2.69" height="22.26"/>
	<polyline class="st11" points="503.81,660.65 506.74,638.02 501.81,274.78 	"/>
	<polyline class="st11" points="507.97,673.11 510.32,638.02 507.97,279.48 	"/>
	<polyline class="st11" points="512.13,685.69 513.91,639.36 513.02,279.48 	"/>
	<polyline class="st11" points="515.91,698.03 517.49,638.02 519.6,274.78 	"/>
	<polyline class="st11" points="520.07,710.29 521.07,638.02 524.22,279.48 	"/>
	<polyline class="st11" points="524.81,724.94 523.76,638.02 530.26,279.48 	"/>
	<circle class="st5" cx="503.81" cy="660.65" r="4.16"/>
	<circle class="st5" cx="507.97" cy="673.11" r="4.16"/>
	<circle class="st5" cx="512.13" cy="685.69" r="4.16"/>
	<circle class="st5" cx="515.91" cy="698.03" r="4.16"/>
	<circle class="st5" cx="520.07" cy="710.29" r="4.16"/>
	<circle class="st5" cx="524.81" cy="724.94" r="4.16"/>
	<path class="st6" d="M496.44,270.27v16.84c0,1.47,1.19,2.66,2.66,2.66h33.87c1.47,0,2.66-1.19,2.66-2.66v-16.84
		c0-1.47-1.19-2.66-2.66-2.66H499.1C497.63,267.61,496.44,268.8,496.44,270.27z"/>
	<g>
		<path class="st5" d="M529.14,269.7v-3.29c0-0.2,0.17-0.37,0.37-0.37h0.77c0.2,0,0.37,0.17,0.37,0.37v3.29
			c0,0.2-0.17,0.37-0.37,0.37h-0.77C529.3,270.07,529.14,269.91,529.14,269.7z"/>
		<path class="st5" d="M523.3,269.7v-3.29c0-0.2,0.17-0.37,0.37-0.37h0.77c0.2,0,0.37,0.17,0.37,0.37v3.29
			c0,0.2-0.17,0.37-0.37,0.37h-0.77C523.46,270.07,523.3,269.91,523.3,269.7z"/>
		<path class="st5" d="M517.76,269.7v-3.29c0-0.2,0.17-0.37,0.37-0.37h0.77c0.2,0,0.37,0.17,0.37,0.37v3.29
			c0,0.2-0.17,0.37-0.37,0.37h-0.77C517.92,270.07,517.76,269.91,517.76,269.7z"/>
		<path class="st5" d="M512.21,269.7v-3.29c0-0.2,0.17-0.37,0.37-0.37h0.77c0.2,0,0.37,0.17,0.37,0.37v3.29
			c0,0.2-0.17,0.37-0.37,0.37h-0.77C512.38,270.07,512.21,269.91,512.21,269.7z"/>
		<path class="st5" d="M506,269.7v-3.29c0-0.2,0.17-0.37,0.37-0.37h0.77c0.2,0,0.37,0.17,0.37,0.37v3.29c0,0.2-0.17,0.37-0.37,0.37
			h-0.77C506.16,270.07,506,269.91,506,269.7z"/>
		<path class="st5" d="M500.58,269.7v-3.29c0-0.2,0.17-0.37,0.37-0.37h0.77c0.2,0,0.37,0.17,0.37,0.37v3.29
			c0,0.2-0.17,0.37-0.37,0.37h-0.77C500.75,270.07,500.58,269.91,500.58,269.7z"/>
	</g>
</g>
<path class="st12" d="M487.68,764.44H125.23c-17.19,0-31.12-13.93-31.12-31.12V31.12C94.11,13.93,108.04,0,125.23,0h362.45
	c17.19,0,31.12,13.93,31.12,31.12v702.2C518.79,750.5,504.86,764.44,487.68,764.44z"/>
</svg>
