<svg id="Calque_1" data-name="Calque 1" xmlns="http://www.w3.org/2000/svg" viewBox="0 0 397.82 165.02"><path d="M198.4,50.17C102.07,50.17,3.23,70.48.09,103.66-3.15,137.93,78.57,165,198.85,165s203.69-28.55,198.76-63.7C393.37,71.14,294.74,50.17,198.4,50.17Zm141.23,90.14c-36.66,10.09-87,15.85-140.47,15.85-123.85,0-209.8-28.81-194.08-59.41,13.54-26.32,99.84-45.17,194-45.17s180.5,18.85,194.07,45.17C401.23,112.42,382.6,128.49,339.63,140.31Z" style="fill:#465a92"/><path d="M199.09,52.17c-92.94,0-178,18.62-191.12,44.58-15.25,30.11,69.46,58.39,191.19,58.39,52.51,0,102-5.65,138.14-15.55,42.35-11.61,60.81-27.41,53-42.84C377.09,70.79,292,52.17,199.09,52.17ZM19.8,96.75c1-3.08,3.36-6.12,6.66-9.08a61.52,61.52,0,0,1,13.15-8.39,142.51,142.51,0,0,1,18.65-7.42c7-2.27,14.75-4.36,23.11-6.24S98.6,62.11,108,60.68s19.06-2.59,29.12-3.52,20.29-1.61,30.69-2,20.88-.61,31.31-.51c-20.86.18-41.56,1.26-61,3.2-9.77,1-19.27,2.18-28.29,3.6S92,64.47,84,66.3C67.45,70,53.31,74.52,42.44,79.59,31.28,84.81,23.53,90.64,19.8,96.75Zm14.54,0c.77-2.83,2.81-5.64,5.73-8.36a53.19,53.19,0,0,1,11.81-7.77,125.08,125.08,0,0,1,17-6.88c6.38-2.12,13.53-4.06,21.22-5.82s15.88-3.27,24.54-4.6,17.63-2.42,27-3.29,18.82-1.5,28.47-1.89,19.36-.55,29-.45c-19.34.18-38.51,1.2-56.44,3-9,.92-17.81,2-26.12,3.36s-16.4,2.84-23.83,4.54c-15.15,3.44-28.08,7.63-38,12.33C44.6,85.76,37.64,91.13,34.34,96.75Zm14.55,0c.56-2.58,2.28-5.15,4.84-7.64A45.72,45.72,0,0,1,64.25,82a109.35,109.35,0,0,1,15.34-6.35c5.8-1.95,12.31-3.75,19.33-5.37s14.54-3,22.48-4.26,16.19-2.25,24.77-3,17.32-1.38,26.2-1.74,17.83-.5,26.72-.4c-17.8.19-35.4,1.14-51.85,2.83-8.27.86-16.31,1.89-23.92,3.12s-15,2.62-21.76,4.2c-13.79,3.16-25.51,7-34.45,11.33C58,86.71,51.78,91.62,48.89,96.75Zm14.54,0a13.46,13.46,0,0,1,4-6.92,38.68,38.68,0,0,1,9.25-6.49,94.27,94.27,0,0,1,13.72-5.79c5.22-1.79,11.1-3.44,17.45-4.93s13.18-2.78,20.4-3.9,14.73-2.07,22.55-2.79,15.8-1.27,23.91-1.6S191,63.88,199.1,64c-16.23.2-32.24,1.08-47.19,2.64-7.5.8-14.8,1.74-21.68,2.87s-13.57,2.4-19.68,3.84c-12.44,2.9-23,6.41-31,10.33C71.44,87.67,66,92.11,63.43,96.75Zm14.55,0a11,11,0,0,1,3.25-6.19,32.06,32.06,0,0,1,8-5.84,81.51,81.51,0,0,1,12.13-5.24c4.64-1.61,9.88-3.11,15.56-4.46s11.82-2.52,18.31-3.54,13.26-1.87,20.31-2.53,14.25-1.15,21.57-1.44,14.67-.39,22-.29c-14.62.2-29,1-42.43,2.44-6.73.72-13.27,1.58-19.43,2.6s-12.13,2.18-17.58,3.48c-11.09,2.61-20.43,5.78-27.5,9.3S80.18,92.61,78,96.75Zm14.54,0a8.92,8.92,0,0,1,2.53-5.46,26.35,26.35,0,0,1,6.84-5.19,68.56,68.56,0,0,1,10.56-4.66,136.41,136.41,0,0,1,13.69-4c5-1.18,10.45-2.25,16.2-3.17s11.77-1.67,18-2.25,12.68-1,19.2-1.28,13-.33,19.52-.23c-13,.21-25.73.94-37.59,2.23-5.95.65-11.72,1.42-17.15,2.33s-10.68,2-15.46,3.1a112.85,112.85,0,0,0-24.08,8.24C98.56,89.6,94.44,93.1,92.52,96.75Zm14.55,0c-.12-3.16,2.55-6.35,7.56-9.25a56.59,56.59,0,0,1,9-4.08,115.76,115.76,0,0,1,11.82-3.5c4.37-1,9.08-2,14.09-2.78s10.26-1.47,15.73-2a301.68,301.68,0,0,1,33.82-1.28c-11.32.21-22.38.87-32.67,2-5.14.58-10.14,1.25-14.83,2.06s-9.22,1.7-13.34,2.71a95.74,95.74,0,0,0-20.67,7.16C112.23,90.57,108.73,93.59,107.07,96.75Zm67.64,21.3c-7.85-.67-15.36-1.61-22.18-2.85a135,135,0,0,1-17.67-4.5,49.48,49.48,0,0,1-11.63-5.63c-2.73-2-4.19-4.11-4.68-6.22a6.46,6.46,0,0,1,.43-3.14l.31-.78a4.07,4.07,0,0,1,.17-.38l.3-.39L121,92.64A30.45,30.45,0,0,1,129.84,87a97.21,97.21,0,0,1,14.39-4.72c5.66-1.35,12-2.49,18.67-3.4s14-1.5,21.31-1.89l5.56-.21,1.39,0c.47,0,.94,0,1.41,0l2.8,0c3.74-.08,7.47,0,11.21.06,7.44.22,14.8.66,21.77,1.39s13.52,1.76,19.51,3a122.28,122.28,0,0,1,15.74,4.32,44.27,44.27,0,0,1,10.52,5.37,10.62,10.62,0,0,1,4.28,6l-.72-1.53a2.93,2.93,0,0,0-.43-.76l-.64-.75L276,93l-.32-.37-.45-.37-1.79-1.44a49.54,49.54,0,0,0-10.92-5.24,129.29,129.29,0,0,0-15.7-4.17c-5.94-1.15-12.42-2.09-19.22-2.81l-5.19-.46-1.3-.11-1.33-.08-2.66-.17-2.65-.17c-.88,0-1.79-.07-2.69-.11-1.8-.06-3.59-.14-5.4-.19-3.63,0-7.25-.13-10.88,0l-2.72,0c-.45,0-.91,0-1.36,0l-1.34,0-5.39.21c-7.12.39-14.08,1-20.59,1.86s-12.52,2-18,3.32a93.07,93.07,0,0,0-14,4.55,30.1,30.1,0,0,0-8.68,5.48l-1.17,1.48-.3.37a2,2,0,0,0-.16.37l-.31.75a6.37,6.37,0,0,0-.47,3.05c.12.51.35,1,.52,1.52a3,3,0,0,0,.32.77l.55.75.55.76.28.38c.12.13.27.25.41.38l1.68,1.49a45.33,45.33,0,0,0,11,5.54,128.3,128.3,0,0,0,17,4.48c6.57,1.27,13.87,2.25,21.56,3l5.9.45,1.48.11,1.51.07,3,.14,3,.15c1,.06,2,0,3.06.08l6.17.12C190.9,119,182.64,118.69,174.71,118.05Zm24.42-2.42c-39.42,0-69.81-8.68-68-18.88,1.74-9.67,32.13-17.16,68-17.16s66.23,7.49,68,17.16C268.94,107,238.55,115.63,199.13,115.63Zm36.75,4.58c5.64-.73,11.05-1.57,16-2.56s9.62-2.08,13.76-3.3c8.28-2.39,14.71-5.2,19-8.22s6.34-6.16,6.47-9.38c1.68,3.22.56,6.58-3.21,9.74a34.29,34.29,0,0,1-7.62,4.62A87.09,87.09,0,0,1,269,115.24c-4.39,1.26-9.26,2.41-14.57,3.41s-11.06,1.85-17.11,2.5a300.63,300.63,0,0,1-38.2,1.63A353.28,353.28,0,0,0,235.88,120.21Zm6.34,4.05c6.62-.85,12.95-1.84,18.78-3s11.21-2.45,16-3.89c9.61-2.81,17-6.12,21.86-9.67s7-7.2,6.84-10.93a7.2,7.2,0,0,1,.58,5.63,12.71,12.71,0,0,1-4.13,5.66,38.12,38.12,0,0,1-8.71,5.38,95.36,95.36,0,0,1-13,4.83c-5.07,1.49-10.7,2.84-16.84,4s-12.85,2.18-19.88,3-14.41,1.36-21.92,1.7-15.11.45-22.65.31A405.1,405.1,0,0,0,242.22,124.26Zm6.48,4.14c7.6-1,14.87-2.14,21.55-3.5s12.82-2.84,18.3-4.5c10.92-3.25,19.25-7.07,24.62-11.15s7.57-8.26,7.1-12.5a8.42,8.42,0,0,1,.75,6.41,14.2,14.2,0,0,1-4.53,6.45,42.78,42.78,0,0,1-9.76,6.16A107,107,0,0,1,292,121.32c-5.74,1.71-12.14,3.27-19.13,4.62s-14.63,2.53-22.66,3.43-16.47,1.59-25.07,2-17.34.55-26,.4A454.8,454.8,0,0,0,248.7,128.4Zm6.61,4.22c8.61-1.12,16.82-2.44,24.36-4s14.44-3.24,20.59-5.13c12.22-3.71,21.47-8,27.32-12.67,5.69-4.53,8.06-9.32,7.23-14.08a9.66,9.66,0,0,1,1,7.19,15.44,15.44,0,0,1-4.89,7.25,45.9,45.9,0,0,1-10.77,7,116.3,116.3,0,0,1-16.38,6.29c-6.41,1.94-13.58,3.72-21.42,5.26s-16.45,2.88-25.49,3.92-18.57,1.83-28.28,2.31-19.61.65-29.43.5A506.6,506.6,0,0,0,255.31,132.62Zm6.75,4.31c9.63-1.27,18.8-2.75,27.2-4.5s16.07-3.66,22.89-5.79c13.51-4.17,23.66-9,30-14.22,6.1-5.06,8.48-10.39,7.26-15.67a10.92,10.92,0,0,1,1.29,8,16.6,16.6,0,0,1-5.18,8.07,49.2,49.2,0,0,1-11.73,7.75,125.71,125.71,0,0,1-18,7A242.86,242.86,0,0,1,292,133.51c-8.81,1.74-18.29,3.25-28.35,4.43s-20.72,2.08-31.56,2.63-21.94.76-32.94.6A556.43,556.43,0,0,0,262.06,136.93Zm6.89,4.39c10.67-1.4,20.8-3.07,30.09-5a258.55,258.55,0,0,0,25.19-6.46C339,125.19,350,119.77,356.74,114c6.48-5.59,8.83-11.47,7.16-17.27a12.28,12.28,0,0,1,1.66,8.76c-.62,3-2.42,6-5.42,8.88A52.06,52.06,0,0,1,347.5,123a133,133,0,0,1-19.65,7.82,259.9,259.9,0,0,1-26,6.61c-9.69,1.95-20.14,3.64-31.26,5s-22.89,2.33-34.9,3-24.31.87-36.51.71A601.7,601.7,0,0,0,269,141.32Zm106.5-25.25c-6.29,6.59-18.36,12.79-34.76,18.12-16.93,5.45-38.38,9.93-62.79,12.84a592.88,592.88,0,0,1-78.74,4,664.51,664.51,0,0,0,76.57-5.36c3-.37,5.78-.82,8.66-1.23s5.6-.89,8.39-1.33,5.43-1,8.05-1.46l3.9-.77,1.95-.39,1.87-.41c2.49-.54,5-1.06,7.4-1.65l3.6-.85,3.44-.89c2.33-.58,4.48-1.21,6.64-1.84l3.22-.93,3-1a149.6,149.6,0,0,0,21-8.29,63.91,63.91,0,0,0,14.1-9c6.9-6.11,9.21-12.52,7.48-18.83h0C382.56,103.07,381.62,109.71,375.45,116.07Z" style="fill:#465a92"/><path d="M199.12,95.61c-2.39,0-4.32.51-4.33,1.14s1.93,1.15,4.33,1.15,4.34-.51,4.33-1.15S201.5,95.61,199.12,95.61Z" style="fill:#465a92"/><path d="M199.12,94.3c-5.11,0-9.28,1.1-9.32,2.45s4.14,2.48,9.32,2.48,9.35-1.11,9.32-2.48S204.23,94.3,199.12,94.3Zm0,4.55c-4.37,0-7.9-.94-7.88-2.1s3.56-2.07,7.88-2.07,7.85.93,7.88,2.07S203.49,98.85,199.12,98.85Z" style="fill:#465a92"/><path d="M25.18,57.16A6.56,6.56,0,0,0,30,48.5a5.34,5.34,0,0,0-2.46-3.23,18.78,18.78,0,0,0-4.36-1.88q-2.49-.75-5.38-1.38a29.57,29.57,0,0,1-5.49-1.75,17.19,17.19,0,0,1-4.68-3,10.59,10.59,0,0,1-3-5.12A8.54,8.54,0,0,1,6,24.57a13,13,0,0,1,3.54-3.23,20.86,20.86,0,0,1,5.61-2.42,10.91,10.91,0,0,1,3.66-.43,18,18,0,0,1,3.1.42A12.68,12.68,0,0,1,24.76,20a8.31,8.31,0,0,1,.58-1.54c.23-.47.46-.87.67-1.21a12,12,0,0,1,.86-1.06l1.35-.39L31.15,26,29,26.62a18.61,18.61,0,0,0-3.44-4.09,13.67,13.67,0,0,0-3.95-2.4,7.57,7.57,0,0,0-5-.17,4.82,4.82,0,0,0-1.82,1,5.25,5.25,0,0,0-1.27,1.67,6.66,6.66,0,0,0-.59,2.21,6.85,6.85,0,0,0,.25,2.52,6.09,6.09,0,0,0,2.57,3.56,18.44,18.44,0,0,0,4.4,2q2.51.79,5.39,1.43A34.17,34.17,0,0,1,31,36.05a17.36,17.36,0,0,1,4.6,2.74,9.2,9.2,0,0,1,2.88,4.66,9.66,9.66,0,0,1,.23,4.28,9.93,9.93,0,0,1-1.79,4.15,14.1,14.1,0,0,1-4,3.62,24,24,0,0,1-6.29,2.7,15,15,0,0,1-4.3.65A17.84,17.84,0,0,1,19,58.52a11.14,11.14,0,0,1-3-1.05A7,7,0,0,1,15.36,59a11.18,11.18,0,0,1-.68,1.19,9.22,9.22,0,0,1-.86,1.06l-1.35.39L9.55,51.42l2.15-.61a17.69,17.69,0,0,0,3.62,4.09,15,15,0,0,0,2,1.34,10.05,10.05,0,0,0,2.28.95,10.73,10.73,0,0,0,2.65.38A9.61,9.61,0,0,0,25.18,57.16Z" style="fill:#1c2a3f"/><path d="M61.67,29.5a12.29,12.29,0,0,0-1-3.16,8.47,8.47,0,0,0-1.37-2.06,3.91,3.91,0,0,0-1.56-1.06,3.17,3.17,0,0,0-1.53-.15,3.75,3.75,0,0,0-2.09,1.09A7.5,7.5,0,0,0,52.88,26a10.51,10.51,0,0,0-.81,2.43L55.76,48.8l3.46.23.15.83L43.92,52.65l-.15-.83,3.16-1.42L40.55,15.08l-3.46-.23L36.94,14l7.17-1.3c3.31-.6,5.27.76,5.86,4.07l1.6,8.83A8.89,8.89,0,0,1,53,23.55a11.07,11.07,0,0,1,2-1.64,8.33,8.33,0,0,1,3.12-1.17,12.16,12.16,0,0,1,4.5,0,10.86,10.86,0,0,1,3.76,1.43,9.6,9.6,0,0,1,2.73,2.49A7.75,7.75,0,0,1,70.5,27.9l3.19,17.66,3.46.23.15.83-7.17,1.29c-3.31.6-5.27-.75-5.87-4.07Z" style="fill:#1c2a3f"/><path d="M89.8,16.16a18.37,18.37,0,0,1,6,.19,12.85,12.85,0,0,1,4.66,2,10.58,10.58,0,0,1,3.15,3.47,12.7,12.7,0,0,1,1.48,4.71l1.75,15,3.44.45.1.83-5,.59a7,7,0,0,1-3.31-.27A6.91,6.91,0,0,1,100,42a6.19,6.19,0,0,1-1.48-2A9,9,0,0,1,97,42.7a9.78,9.78,0,0,1-2.31,2A8.29,8.29,0,0,1,91,45.93a15.53,15.53,0,0,1-4.6,0A9.57,9.57,0,0,1,83,44.64a6.73,6.73,0,0,1-3.19-5,9.15,9.15,0,0,1,0-2.4,10.59,10.59,0,0,1,.44-2,12.33,12.33,0,0,1,.79-2c1.51-.55,3.13-1.08,4.84-1.58,1.45-.43,3.09-.88,4.92-1.33s3.69-.84,5.57-1.13l-.19-1.68a27.8,27.8,0,0,0-1-5.29,9.82,9.82,0,0,0-1.58-3.2,4.24,4.24,0,0,0-2.12-1.48,6.77,6.77,0,0,0-2.65-.17,7.69,7.69,0,0,0-1.1.21q-.49.15-.87.3c-.28.15-.53.27-.75.37l1,8.36c-.25.1-.49.18-.71.25a6.18,6.18,0,0,1-.68.16,7.81,7.81,0,0,1-.81.12,3.93,3.93,0,0,1-4.66-3.69,4.8,4.8,0,0,1,.32-2.32A5.71,5.71,0,0,1,82.14,19a10.5,10.5,0,0,1,3-1.77A18.31,18.31,0,0,1,89.8,16.16ZM89.39,32A8.34,8.34,0,0,0,89,33.75,15,15,0,0,0,89,38c.26,2.23.78,3.76,1.58,4.61A2.91,2.91,0,0,0,93,43.72a3.53,3.53,0,0,0,2.12-.95,7.47,7.47,0,0,0,1.36-1.71,13.53,13.53,0,0,0,1-2.38l-1-8.07c-.85.1-1.7.23-2.55.38s-1.62.31-2.31.47S90.12,31.85,89.39,32Z" style="fill:#1c2a3f"/><path d="M116.68,3c3.36-.24,5.15,1.32,5.39,4.67l.54,7.55A8.86,8.86,0,0,1,124.27,14a9.66,9.66,0,0,1,2-.93,10,10,0,0,1,2.63-.52,12.81,12.81,0,0,1,5.08.59A10.68,10.68,0,0,1,138,15.65a12.93,12.93,0,0,1,2.85,4.43,21,21,0,0,1,1.35,6.4,20.8,20.8,0,0,1-.43,6.52,13.75,13.75,0,0,1-2.1,4.79,10.36,10.36,0,0,1-3.44,3.06,10.92,10.92,0,0,1-4.43,1.27A8.34,8.34,0,0,1,128,41.6a9.45,9.45,0,0,1-2.62-1.55,9,9,0,0,1-2-2.39A5.89,5.89,0,0,1,122.19,40,7.53,7.53,0,0,1,120,41.7a9.43,9.43,0,0,1-3.86,1l-.56,0L112.88,5l-3.41-.59-.06-.84Zm7.43,33.2a10.23,10.23,0,0,0,1.39,2.14,7.35,7.35,0,0,0,1.67,1.43,3.71,3.71,0,0,0,2.29.54,2.68,2.68,0,0,0,1.45-.61,4.1,4.1,0,0,0,1.2-2,18.22,18.22,0,0,0,.7-4,43.72,43.72,0,0,0-.07-6.51,47.37,47.37,0,0,0-.87-6.63,14.67,14.67,0,0,0-1.35-3.92,4.23,4.23,0,0,0-1.73-1.85,3.94,3.94,0,0,0-2-.39,3.85,3.85,0,0,0-1.57.45,8,8,0,0,0-1.32.88,8.77,8.77,0,0,0-1.15,1.21Z" style="fill:#1c2a3f"/><path d="M159.58,11a18.21,18.21,0,0,1,6,.69A12.91,12.91,0,0,1,170.06,14a10.45,10.45,0,0,1,2.84,3.72A12.43,12.43,0,0,1,174,22.55l.5,15.13,3.39.73,0,.84-5,.17a7.09,7.09,0,0,1-3.27-.54,7.2,7.2,0,0,1-2-1.36,6.14,6.14,0,0,1-1.31-2.09A8.87,8.87,0,0,1,164.52,38a9.71,9.71,0,0,1-2.47,1.82,8.31,8.31,0,0,1-3.73.91,15.66,15.66,0,0,1-4.58-.44,9.38,9.38,0,0,1-3.28-1.51,6.89,6.89,0,0,1-2-2.35,6.75,6.75,0,0,1-.74-2.92,9.15,9.15,0,0,1,.2-2.39,10.53,10.53,0,0,1,.61-2,12.21,12.21,0,0,1,.94-1.88c1.56-.42,3.21-.82,5-1.17,1.48-.31,3.15-.62,5-.93s3.74-.52,5.64-.66L165,22.85a28.17,28.17,0,0,0-.6-5.37,9.68,9.68,0,0,0-1.31-3.32,4.27,4.27,0,0,0-2-1.65,6.84,6.84,0,0,0-2.62-.39,7,7,0,0,0-1.12.13,7.24,7.24,0,0,0-.89.22l-.78.31.28,8.4a6.68,6.68,0,0,1-.72.2c-.22,0-.46.08-.7.1s-.51.05-.81.06a4,4,0,0,1-4.34-4.07,4.63,4.63,0,0,1,.51-2.28,5.71,5.71,0,0,1,1.78-2,10.7,10.7,0,0,1,3.18-1.51A18.56,18.56,0,0,1,159.58,11Zm-1.72,15.76a8.77,8.77,0,0,0-.51,1.7,16.73,16.73,0,0,0-.33,1.86,16.12,16.12,0,0,0-.09,2.36c.08,2.24.48,3.82,1.2,4.73a2.94,2.94,0,0,0,2.37,1.33,3.56,3.56,0,0,0,2.19-.78,7.64,7.64,0,0,0,1.49-1.59,13.41,13.41,0,0,0,1.22-2.29l-.27-8.12c-.86,0-1.72.08-2.58.17s-1.64.17-2.35.27S158.6,26.63,157.86,26.73Z" style="fill:#1c2a3f"/><path d="M203.73,0c3.36,0,5,1.69,5,5.05l-.06,32.52,3.36.85v.84H207a7,7,0,0,1-3.25-.65,7.36,7.36,0,0,1-2-1.43,6.13,6.13,0,0,1-1.23-2.14,9,9,0,0,1-1.85,2.52,9.5,9.5,0,0,1-2.53,1.73,8.25,8.25,0,0,1-3.76.78,10.71,10.71,0,0,1-4.51-1,10.3,10.3,0,0,1-3.64-2.81,13.64,13.64,0,0,1-2.43-4.63A21.08,21.08,0,0,1,181,25.2a20.92,20.92,0,0,1,.91-6.47,13,13,0,0,1,2.53-4.63,10.6,10.6,0,0,1,3.9-2.79,12.79,12.79,0,0,1,5-.94,9.71,9.71,0,0,1,2.67.34,9.88,9.88,0,0,1,2,.79,9.15,9.15,0,0,1,1.74,1.12l0-10.93L196.44.84V0Zm-4,14.28a13.32,13.32,0,0,0-1.28-1.12,8.53,8.53,0,0,0-1.35-.79,3.75,3.75,0,0,0-1.57-.34,4,4,0,0,0-2,.53,4.28,4.28,0,0,0-1.6,2,14.86,14.86,0,0,0-1.07,4,44.42,44.42,0,0,0-.41,6.67,42.87,42.87,0,0,0,.38,6.5,18.09,18.09,0,0,0,1,4,4.24,4.24,0,0,0,1.34,1.94,2.73,2.73,0,0,0,1.49.5,3.51,3.51,0,0,0,2.21-.69,7.54,7.54,0,0,0,1.55-1.54,12.48,12.48,0,0,0,1.29-2.24Z" style="fill:#1c2a3f"/><path d="M229.61,11a18.51,18.51,0,0,1,5.93,1.12,12.9,12.9,0,0,1,4.31,2.66,10.45,10.45,0,0,1,2.57,3.91,12.41,12.41,0,0,1,.74,4.88L242.6,38.7l3.33,1,0,.84-5-.19a6.88,6.88,0,0,1-3.22-.77,7.06,7.06,0,0,1-1.91-1.5,6,6,0,0,1-1.15-2.17,9.05,9.05,0,0,1-1.95,2.45A9.54,9.54,0,0,1,230,40a8.26,8.26,0,0,1-3.78.64,15.25,15.25,0,0,1-4.54-.76,9.44,9.44,0,0,1-3.16-1.74,6.76,6.76,0,0,1-1.85-2.48,6.91,6.91,0,0,1-.53-3,9.19,9.19,0,0,1,.37-2.37,11,11,0,0,1,.74-1.91,13.74,13.74,0,0,1,1.08-1.81c1.58-.31,3.26-.59,5-.82q2.25-.3,5.07-.57c1.87-.17,3.77-.26,5.67-.26l.07-1.68a28.42,28.42,0,0,0-.22-5.4,9.93,9.93,0,0,0-1.08-3.4A4.2,4.2,0,0,0,231,12.66a6.71,6.71,0,0,0-2.59-.58,8,8,0,0,0-1.12,0,8.08,8.08,0,0,0-.9.17l-.8.25-.31,8.4a5.93,5.93,0,0,1-.74.14c-.22,0-.46.05-.7.06h-.82a4,4,0,0,1-4-4.36,4.71,4.71,0,0,1,.67-2.25,5.73,5.73,0,0,1,1.93-1.89,10.29,10.29,0,0,1,3.27-1.28A17.94,17.94,0,0,1,229.61,11Zm-2.83,15.61a8.6,8.6,0,0,0-.63,1.66,15.67,15.67,0,0,0-.46,1.83,14.86,14.86,0,0,0-.25,2.35c-.09,2.24.2,3.84.85,4.8a2.93,2.93,0,0,0,2.28,1.49,3.61,3.61,0,0,0,2.24-.62,7.54,7.54,0,0,0,1.59-1.48,13.7,13.7,0,0,0,1.38-2.2l.3-8.12c-.86,0-1.72,0-2.58,0s-1.65.06-2.36.11S227.53,26.56,226.78,26.61Z" style="fill:#1c2a3f"/><path d="M258,2c3.36.26,4.91,2.06,4.65,5.42L262.09,15a8,8,0,0,1,1.82-1,11,11,0,0,1,2.1-.63,10.13,10.13,0,0,1,2.68-.13,12.85,12.85,0,0,1,4.93,1.33,10.63,10.63,0,0,1,3.67,3.09,13,13,0,0,1,2.17,4.81,21.16,21.16,0,0,1,.4,6.52,21.08,21.08,0,0,1-1.39,6.39,13.75,13.75,0,0,1-2.78,4.43,10.22,10.22,0,0,1-3.85,2.52,10.93,10.93,0,0,1-4.57.61,8.41,8.41,0,0,1-3.72-1.08,9.53,9.53,0,0,1-2.35-1.92,9,9,0,0,1-1.66-2.65A5.67,5.67,0,0,1,258,39.41a7.21,7.21,0,0,1-2.41,1.36,9.23,9.23,0,0,1-4,.4l-.56,0L254,3.39,250.68,2.3l.07-.84Zm2.48,33.93a10.76,10.76,0,0,0,1.06,2.33A7.21,7.21,0,0,0,263,39.93a3.73,3.73,0,0,0,2.18.87,2.72,2.72,0,0,0,1.52-.39,4.17,4.17,0,0,0,1.49-1.83,18.3,18.3,0,0,0,1.28-3.87,43.2,43.2,0,0,0,.88-6.45,45.67,45.67,0,0,0,.12-6.68,14.75,14.75,0,0,0-.76-4.08,4.18,4.18,0,0,0-1.44-2.08,3.91,3.91,0,0,0-1.95-.68,3.86,3.86,0,0,0-1.62.21,7.46,7.46,0,0,0-1.42.68,8.29,8.29,0,0,0-1.32,1Z" style="fill:#1c2a3f"/><path d="M299.42,16.28a18.6,18.6,0,0,1,5.82,1.62,13,13,0,0,1,4.07,3A10.55,10.55,0,0,1,311.54,25a12.58,12.58,0,0,1,.33,4.93L310,45l3.24,1.25-.1.83-5-.61a7,7,0,0,1-3.15-1,7,7,0,0,1-1.77-1.66,6,6,0,0,1-1-2.26,9.32,9.32,0,0,1-2.14,2.28,9.75,9.75,0,0,1-2.72,1.41,8.3,8.3,0,0,1-3.82.32,15.5,15.5,0,0,1-4.47-1.14,9.42,9.42,0,0,1-3-2,6.67,6.67,0,0,1-1.91-5.63,9.94,9.94,0,0,1,.57-2.33,11.27,11.27,0,0,1,.91-1.84,12.3,12.3,0,0,1,1.22-1.72c1.61-.17,3.3-.31,5.08-.39,1.51-.08,3.21-.12,5.1-.14s3.78.06,5.68.22l.2-1.67a27.66,27.66,0,0,0,.24-5.39,10,10,0,0,0-.78-3.49,4.24,4.24,0,0,0-1.72-1.93,6.72,6.72,0,0,0-2.53-.79,6.23,6.23,0,0,0-1.12-.05,7.52,7.52,0,0,0-.91.08c-.32.08-.59.14-.82.18l-1,8.35a7.4,7.4,0,0,1-.75.08c-.22,0-.46,0-.7,0s-.52,0-.81-.07a4,4,0,0,1-3.66-4.69,4.62,4.62,0,0,1,.86-2.18,5.68,5.68,0,0,1,2.07-1.72,10.31,10.31,0,0,1,3.37-1A18,18,0,0,1,299.42,16.28Zm-4.14,15.31a9.55,9.55,0,0,0-.76,1.6,16.78,16.78,0,0,0-.61,1.79,15.61,15.61,0,0,0-.46,2.32q-.4,3.33.45,4.86A2.91,2.91,0,0,0,296,43.83a3.57,3.57,0,0,0,2.28-.43A7.07,7.07,0,0,0,300,42.06,13.34,13.34,0,0,0,301.6,40l1-8.07c-.86-.1-1.71-.18-2.57-.23s-1.65-.08-2.36-.09S296,31.61,295.28,31.59Z" style="fill:#1c2a3f"/><path d="M345.43,13c3.3.62,4.65,2.58,4,5.89l-6,32,3.15,1.44-.15.83-5-.93A6.9,6.9,0,0,1,338.46,51a7.17,7.17,0,0,1-1.67-1.76,6.15,6.15,0,0,1-.82-2.32,9.23,9.23,0,0,1-2.28,2.14,9.56,9.56,0,0,1-2.8,1.24,8.32,8.32,0,0,1-3.84.09,10.9,10.9,0,0,1-4.26-1.77,10.23,10.23,0,0,1-3.07-3.42,13.86,13.86,0,0,1-1.55-5,21.15,21.15,0,0,1,.31-6.53,21,21,0,0,1,2.07-6.2,12.66,12.66,0,0,1,3.33-4.08,10.54,10.54,0,0,1,4.34-2.05,12.91,12.91,0,0,1,5.11,0,10,10,0,0,1,2.56.82,10.72,10.72,0,0,1,1.86,1.14,9,9,0,0,1,1.51,1.43l2-10.75-3.15-1.45.15-.82ZM339,26.36A11.79,11.79,0,0,0,337.89,25a8.32,8.32,0,0,0-1.18-1,3.82,3.82,0,0,0-1.48-.62,4,4,0,0,0-2.06.16,4.28,4.28,0,0,0-1.93,1.64,14.71,14.71,0,0,0-1.78,3.74,45.28,45.28,0,0,0-1.61,6.49,43.33,43.33,0,0,0-.81,6.47,18.14,18.14,0,0,0,.24,4.06,4.19,4.19,0,0,0,1,2.15,2.69,2.69,0,0,0,1.37.77,3.57,3.57,0,0,0,2.3-.28,7.65,7.65,0,0,0,1.8-1.24,13,13,0,0,0,1.68-2Z" style="fill:#1c2a3f"/><path d="M369.9,29.65a18.15,18.15,0,0,1,5.48,2.53,13,13,0,0,1,3.53,3.62,10.48,10.48,0,0,1,1.54,4.43,12.45,12.45,0,0,1-.47,4.91l-4.23,14.54,3,1.74-.23.81-4.85-1.41a6.72,6.72,0,0,1-4.43-3.45,6.08,6.08,0,0,1-.58-2.39,8.87,8.87,0,0,1-2.49,1.9,9.31,9.31,0,0,1-2.9,1,8.3,8.3,0,0,1-3.83-.3,15.93,15.93,0,0,1-4.22-1.84,9.42,9.42,0,0,1-2.64-2.47,6.69,6.69,0,0,1-1.19-2.85,7,7,0,0,1,.21-3,9.86,9.86,0,0,1,.93-2.21,11.6,11.6,0,0,1,1.19-1.67A12.33,12.33,0,0,1,355.2,42c1.61.08,3.3.22,5.07.43,1.51.16,3.19.39,5.06.68s3.72.67,5.57,1.13l.47-1.62a29.18,29.18,0,0,0,1.1-5.28,9.65,9.65,0,0,0-.22-3.57,4.21,4.21,0,0,0-1.37-2.18,6.77,6.77,0,0,0-2.37-1.19,6.47,6.47,0,0,0-1.11-.23c-.33,0-.64-.06-.91-.07s-.6,0-.83.05l-2.36,8.08c-.27,0-.52,0-.74,0l-.7-.12c-.24,0-.5-.12-.79-.2a4,4,0,0,1-2.86-5.21,4.72,4.72,0,0,1,1.2-2,5.83,5.83,0,0,1,2.33-1.37,10.7,10.7,0,0,1,3.49-.44A18.11,18.11,0,0,1,369.9,29.65Zm-6.55,14.44a9.08,9.08,0,0,0-1,1.46,14.77,14.77,0,0,0-.89,1.67,14.44,14.44,0,0,0-.82,2.21c-.63,2.15-.74,3.78-.34,4.87a2.91,2.91,0,0,0,1.84,2,3.53,3.53,0,0,0,2.32,0,7.84,7.84,0,0,0,1.92-1.05,13.56,13.56,0,0,0,1.86-1.79l2.28-7.81c-.83-.24-1.66-.45-2.5-.64s-1.62-.34-2.32-.47S364.09,44.23,363.35,44.09Z" style="fill:#1c2a3f"/></svg>